# AST/ASF file generated using VICON BodyLanguage
# -----------------------------------------------
:version 1.10
:name VICON
:units
  mass 1.0
  length 0.45
  angle deg
:documentation
   .ast/.asf automatically generated from VICON data using
   VICON BodyBuilder and BodyLanguage model FoxedUp or BRILLIANT.MOD
:root
   order TX TY TZ RX RY RZ
   axis XYZ
   position 0 0 0  
   orientation 0 0 0 
:bonedata
  begin
     id 1 
     name lhipjoint
     direction 0.523584 -0.783993 0.333487 
     length 2.44404 
     axis 0 0 0  XYZ
  end
  begin
     id 2 
     name lfemur
     direction 0.34202 -0.939693 0  
     length 7.29523  
     axis 0 0 20  XYZ
    dof rx ry rz
    limits (-160.0 20.0)
           (-70.0 70.0)
           (-60.0 70.0)
  end
  begin
     id 3 
     name ltibia
     direction 0.34215 -0.939645 0   
     length 7.81194   
     axis 0 0 20   XYZ
    dof rx
    limits (-10.0 170.0)
  end
  begin
     id 4 
     name lfoot
     direction 0.0941847 -0.25877 0.961336   
     length 2.41437   
     axis -90 7.62852e-016 20   XYZ
    dof rx rz
    limits (-45.0 90.0)
           (-70.0 20.0)
  end
  begin
     id 5 
     name ltoes
     direction 1.53526e-011 -4.21768e-011 1   
     length 1.2048   
     axis -90 7.62852e-016 20   XYZ
    dof rx
    limits (-90.0 20.0)
  end
  begin
     id 6 
     name rhipjoint
     direction -0.46599 -0.814191 0.346332   
     length 2.35339  
     axis 0 0 0  XYZ 
  end
  begin
     id 7 
     name rfemur
     direction -0.34202 -0.939693 0   
     length 7.34966   
     axis 0 0 -20   XYZ
    dof rx ry rz
    limits (-160.0 20.0)
           (-70.0 70.0)
           (-70.0 60.0)
  end
  begin
     id 8 
     name rtibia
     direction -0.34202 -0.939693 0   
     length 7.89934   
     axis 0 0 -20   XYZ
    dof rx
    limits (-10.0 170.0)
 end
 begin
     id 9 
     name rfoot
     direction -0.0975468 -0.268008 0.958466   
     length 2.27725  
     axis -90 -7.62852e-016 -20   XYZ
    dof rx rz
    limits (-45.0 90.0)
           (-20.0 70.0)
  end
  begin
     id 10 
     name rtoes
     direction -1.53563e-011 -4.22022e-011 1   
     length 1.13683   
     axis -90 -7.62852e-016 -20   XYZ
    dof rx
    limits (-90.0 20.0)
  end
  begin
     id 11 
     name lowerback
     direction -0.00456414 0.999242 -0.0386661   
     length 2.16968   
     axis 0 0 0   XYZ
    dof rx ry rz
    limits (-20.0 45.0)
           (-30.0 30.0)
           (-30.0 30.0)
  end
  begin
     id 12 
     name upperback
     direction 0.0297078 0.998988 0.0337799   
     length 2.15674   
     axis 0 0 0   XYZ
    dof rx ry rz
    limits (-20.0 45.0)
           (-30.0 30.0)
           (-30.0 30.0)
  end
  begin
     id 13 
     name thorax
     direction 0.0309305 0.998202 0.0513506   
     length 2.16319   
     axis 0 0 0   XYZ
    dof rx ry rz
    limits (-20.0 45.0)
           (-30.0 30.0)
           (-30.0 30.0)
  end
  begin
     id 14 
     name lowerneck
     direction -0.103039 0.983474 0.148872   
     length 1.64318   
     axis 0 0 0   XYZ
    dof rx ry rz
    limits (-20.0 45.0)
           (-30.0 30.0)
           (-30.0 30.0)
  end
  begin
     id 15 
     name upperneck
     direction 0.128124 0.971079 -0.201469   
     length 1.68242   
     axis 0 0 0   XYZ
    dof rx ry rz
    limits (-20.0 45.0)
           (-30.0 30.0)
           (-30.0 30.0)
  end
  begin
     id 16
     name head
     direction 0.0496365 0.994919 -0.0875941  
     length 1.70108  
     axis 0 0 0   XYZ
    dof rx ry rz
    limits (-20.0 45.0)
           (-30.0 30.0)
           (-30.0 30.0)
  end
  begin
     id 17 
     name lclavicle
     direction 0.887148 0.430222 -0.166967  
     length 3.25763  
     axis 0 0 0   XYZ
    dof ry rz
    limits (-20.0 10.0)
           (0.0 20.0)
  end
  begin
     id 18 
     name lhumerus
     direction 1 -4.48962e-011 1.92156e-027   
     length 5.10755   
     axis 180 -30 -90   XYZ
    dof rx ry rz
    limits (-60.0 90.0)
           (-90.0 90.0)
           (-90.0 90.0)
  end
  begin
     id 19
     name lradius
     direction 1 -4.48958e-011 7.10963e-027   
     length 3.36253   
     axis 180 -30 -90   XYZ
    dof rx
    limits (-10.0 170.0)
  end
  begin
     id 20
     name lwrist
     direction 1 -4.48946e-011 1.82396e-026   
     length 1.68127   
     axis -1.15222e-014 90 90   XYZ
    dof ry
    limits (-180.0 0.0)
 end
  begin
     id 21 
     name lhand
     direction 1 -4.48919e-011 3.64759e-026   
     length 0.619088   
     axis -2.32787e-014 90 90   XYZ
    dof rx rz
    limits (-90.0 90.0)
           (-45.0 45.0)
  end
  begin
     id 22 
     name lfingers
     direction 1 -4.49012e-011 7.29744e-026   
     length 0.499125   
     axis -4.6558e-014 90 90   XYZ
    dof rx
    limits (0.0 90.0)
  end
  begin
     id 23
     name lthumb
     direction 0.707107 -6.35028e-011 0.707107   
     length 0.716646   
     axis -90 45 3.78391e-014   XYZ
    dof rx rz
    limits (-45.0 45.0)
           (-45.0 45.0)
  end
  begin
     id 24 
     name rclavicle
     direction -0.82886 0.533198 -0.169384   
     length 3.20647  
     axis 0 0 0   XYZ 
    dof ry rz
    limits (-10.0 20.0)
           (-20.0 0.0)
  end
  begin
     id 25 
     name rhumerus
     direction -1 -4.48973e-011 3.06863e-027  
     length 5.27387   
     axis 180 30 90   XYZ
    dof rx ry rz
    limits (-90.0 60.0)
           (-90.0 90.0)
           (-90.0 90.0)
  end
  begin
     id 26 
     name rradius
     direction -1 -4.48988e-011 9.4797e-027   
     length 3.40144   
     axis 180 30 90   XYZ
    dof rx
    limits (-10.0 170.0)
  end
  begin
     id 27 
     name rwrist
     direction -1 -4.48897e-011 1.82366e-026   
     length 1.70072   
     axis -1.15222e-014 -90 -90   XYZ
    dof ry
    limits (-180.0 0.0)
  end
  begin
     id 28
     name rhand
     direction -1 -4.48965e-011 3.64815e-026   
     length 0.742821   
     axis -2.32787e-014 -90 -90   XYZ
    dof rx rz
    limits (-90.0 90.0)
           (-45.0 45.0)
  end
  begin
     id 29
     name rfingers
     direction -1 -4.49016e-011 7.29754e-026   
     length 0.598881   
     axis -4.6558e-014 -90 -90   XYZ
    dof rx
    limits (0.0 90.0)
  end
  begin
     id 30
     name rthumb
     direction -0.707107 -6.3488e-011 0.707107   
     length 0.859877   
     axis -90 -45 -3.78391e-014   XYZ
    dof rx rz
    limits (-45.0 45.0)
           (-45.0 45.0)
  end
:hierarchy
  begin
    root lhipjoint rhipjoint lowerback
    lhipjoint lfemur
    lfemur ltibia
    ltibia lfoot
    lfoot ltoes
    rhipjoint rfemur
    rfemur rtibia
    rtibia rfoot
    rfoot rtoes
    lowerback upperback
    upperback thorax
    thorax lowerneck lclavicle rclavicle
    lowerneck upperneck
    upperneck head
    lclavicle lhumerus
    lhumerus lradius
    lradius lwrist
    lwrist lhand lthumb
    lhand lfingers
    rclavicle rhumerus
    rhumerus rradius
    rradius rwrist
    rwrist rhand rthumb
    rhand rfingers
  end

#!OML:ASF F:\Work\Patient Classification 1\justin\Session 1\justin.ASF
:FULLY-SPECIFIED
:DEGREES
783
root 0.652237 15.1935 15.6022 153.43 -80.2469 -182.464
lowerback 21.2505 2.79828 0.76219
upperback 14.5187 2.22518 5.03512
thorax 3.85409 0.262623 4.55916
lowerneck -18.5342 11.493 -7.76761
upperneck 18.9815 17.5709 1.59602
head 8.09947 7.86375 3.74792
rclavicle -1.70955e-014 -1.11319e-014
rhumerus -29.9029 22.402 -84.9733
rradius 76.8079
rwrist 12.3494
rhand -21.9479 23.6358
rfingers 7.12502
rthumb 4.45904 -6.29726
lclavicle -1.70955e-014 -1.11319e-014
lhumerus -27.0003 -23.8038 100.216
lradius 66.4687
lwrist -0.239899
lhand -32.961 26.7082
lfingers 7.12502
lthumb -6.17659 56.5982
rfemur -30.0148 -23.086 12.0931
rtibia 98.3624
rfoot 1.88413 3.17483
rtoes -6.59744
lfemur -26.7289 22.1394 -9.51267
ltibia 98.248
lfoot 9.45384 -3.77267
ltoes -7.82914
784
root 0.653934 15.19 15.5991 152.841 -80.2689 -181.91
lowerback 21.2475 2.72081 0.615487
upperback 14.5142 2.09261 5.14127
thorax 3.85297 0.175593 4.78206
lowerneck -18.5848 11.6041 -7.84507
upperneck 19.0769 17.7559 1.589
head 8.12494 7.93809 3.78162
rclavicle -2.46493e-014 -2.06736e-014
rhumerus -29.8975 22.8146 -84.9511
rradius 76.7813
rwrist 12.277
rhand -21.951 23.6315
rfingers 7.12502
rthumb 4.45604 -6.30167
lclavicle -2.46493e-014 -2.06736e-014
lhumerus -27.0011 -23.4061 100.279
lradius 66.4524
lwrist -0.239076
lhand -33.1428 26.9221
lfingers 7.12502
lthumb -6.35206 56.8069
rfemur -29.9746 -23.1422 12.1965
rtibia 98.3765
rfoot 1.86582 3.18198
rtoes -6.3568
lfemur -26.7317 22.0843 -9.38744
ltibia 98.2799
lfoot 9.43541 -3.75846
ltoes -7.70707
785
root 0.655003 15.1864 15.595 152.945 -80.2829 -182.017
lowerback 21.2352 2.63921 0.489322
upperback 14.4669 1.97281 5.08988
thorax 3.81154 0.111254 4.81847
lowerneck -18.5449 11.7493 -7.64145
upperneck 19.1437 17.9187 1.50432
head 8.15915 8.01494 3.74543
rclavicle -1.19271e-015 -4.77083e-015
rhumerus -29.949 22.9943 -85.2444
rradius 76.6548
rwrist 12.4502
rhand -22.0167 23.6089
rfingers 7.12502
rthumb 4.39266 -6.32555
lclavicle -1.19271e-015 -4.77083e-015
lhumerus -27.0636 -23.1078 100.186
lradius 66.4241
lwrist -0.286379
lhand -33.2014 26.9807
lfingers 7.12502
lthumb -6.40862 56.8637
rfemur -30.0088 -23.1924 12.1815
rtibia 98.4052
rfoot 1.89001 3.18624
rtoes -5.61427
lfemur -26.7694 22.0745 -9.39927
ltibia 98.3024
lfoot 9.46037 -3.79623
ltoes -7.75219
786
root 0.654202 15.1872 15.5939 153.285 -80.2709 -182.345
lowerback 21.1935 2.63956 0.484704
upperback 14.41 1.98675 5.03606
thorax 3.76685 0.127529 4.75924
lowerneck -18.293 11.77 -7.45431
upperneck 18.9808 17.9112 1.27938
head 8.10237 8.01073 3.62401
rclavicle -1.39149e-015 -6.36111e-015
rhumerus -30.053 22.904 -85.4337
rradius 76.5899
rwrist 12.5756
rhand -22.1269 23.453
rfingers 7.12502
rthumb 4.28621 -6.48361
lclavicle -1.39149e-015 -6.36111e-015
lhumerus -27.1526 -23.1667 100.201
lradius 66.3865
lwrist -0.314917
lhand -33.1478 27.0406
lfingers 7.12502
lthumb -6.35688 56.9252
rfemur -30.0426 -23.2088 12.1178
rtibia 98.4025
rfoot 1.91062 3.1661
rtoes -5.94062
lfemur -26.7688 22.0964 -9.46853
ltibia 98.2939
lfoot 9.49142 -3.84393
ltoes -7.76775
787
root 0.652744 15.1957 15.5971 153.688 -80.2542 -182.765
lowerback 21.1031 2.61663 0.408071
upperback 14.4285 1.9394 5.05417
thorax 3.83351 0.0953056 4.83268
lowerneck -18.2245 11.8211 -7.40505
upperneck 18.8917 18.0191 0.985404
head 8.09245 8.0351 3.52822
rclavicle -8.74653e-015 -5.24792e-014
rhumerus -30.043 23.0719 -85.5023
rradius 76.5302
rwrist 12.3967
rhand -22.1961 23.3301
rfingers 7.12502
rthumb 4.21945 -6.60784
lclavicle -8.74653e-015 -5.24792e-014
lhumerus -27.118 -23.0119 100.232
lradius 66.394
lwrist -0.256637
lhand -33.075 26.9622
lfingers 7.12502
lthumb -6.28663 56.8489
rfemur -29.982 -23.1818 12.0093
rtibia 98.3514
rfoot 2.00779 3.24726
rtoes -6.80882
lfemur -26.741 22.0122 -9.46871
ltibia 98.281
lfoot 9.73328 -3.36756
ltoes -4.51982
